<svg width="18" height="18" viewBox="0 0 18 18" fill="none" xmlns="http://www.w3.org/2000/svg">
<path d="M14.1766 12.8637L14.4886 15.3916C14.5686 16.0556 13.8566 16.5196 13.2887 16.1756L9.93674 14.1836C9.56875 14.1836 9.20877 14.1597 8.85678 14.1117C9.44876 13.4157 9.80075 12.5357 9.80075 11.5837C9.80075 9.31177 7.8328 7.47185 5.40086 7.47185C4.47289 7.47185 3.61691 7.73582 2.90493 8.19981C2.88093 7.99982 2.87292 7.79982 2.87292 7.59182C2.87292 3.95192 6.03284 1 9.93674 1C13.8406 1 17.0006 3.95192 17.0006 7.59182C17.0006 9.75176 15.8886 11.6637 14.1766 12.8637Z" stroke="#00413D" stroke-width="1.5" stroke-linecap="round" stroke-linejoin="round"/>
<path d="M9.79977 11.5833C9.79977 12.5353 9.44779 13.4153 8.8558 14.1113C8.06382 15.0712 6.80785 15.6872 5.39989 15.6872L3.31194 16.9271C2.95995 17.1431 2.51196 16.8472 2.55996 16.4392L2.75995 14.8632C1.68798 14.1193 1 12.9273 1 11.5833C1 10.1753 1.75198 8.93538 2.90395 8.1994C3.61594 7.73541 4.47191 7.47144 5.39989 7.47144C7.83182 7.47144 9.79977 9.31135 9.79977 11.5833Z" stroke="#00413D" stroke-width="1.5" stroke-linecap="round" stroke-linejoin="round"/>
</svg>
